<svg width="300" height="300" viewBox="0 0 300 300" xmlns="http://www.w3.org/2000/svg">
  <defs>
    <linearGradient id="crossbodyGradient" x1="0%" y1="0%" x2="100%" y2="100%">
      <stop offset="0%" style="stop-color:#FF69B4;stop-opacity:1" />
      <stop offset="100%" style="stop-color:#C1477C;stop-opacity:1" />
    </linearGradient>
    <linearGradient id="strapGradient" x1="0%" y1="0%" x2="100%" y2="100%">
      <stop offset="0%" style="stop-color:#8B4513;stop-opacity:1" />
      <stop offset="100%" style="stop-color:#5D2F0A;stop-opacity:1" />
    </linearGradient>
  </defs>
  
  <!-- Main bag body -->
  <rect x="80" y="140" width="140" height="100" rx="15" fill="url(#crossbodyGradient)" stroke="#8B0A40" stroke-width="2"/>
  
  <!-- Flap -->
  <path d="M80 140 Q150 120 220 140 L220 160 L80 160 Z" fill="#C1477C" stroke="#8B0A40" stroke-width="1"/>
  
  <!-- Magnetic closure -->
  <circle cx="150" cy="135" r="4" fill="#FFD700" stroke="#DAA520" stroke-width="1"/>
  
  <!-- Crossbody strap -->
  <path d="M70 160 Q30 80 50 40 Q100 20 180 60 Q220 80 230 160" fill="none" stroke="url(#strapGradient)" stroke-width="6" stroke-linecap="round"/>
  
  <!-- Hardware details -->
  <rect x="75" y="155" width="8" height="8" fill="#C0C0C0" rx="1"/>
  <rect x="217" y="155" width="8" height="8" fill="#C0C0C0" rx="1"/>
  
  <!-- Decorative stitching -->
  <rect x="85" y="145" width="130" height="85" rx="10" fill="none" stroke="#8B0A40" stroke-width="1" stroke-dasharray="2,2"/>
  
  <!-- Shadow -->
  <ellipse cx="150" cy="260" rx="70" ry="8" fill="#000000" opacity="0.2"/>
</svg>