<svg width="300" height="300" viewBox="0 0 300 300" xmlns="http://www.w3.org/2000/svg">
  <defs>
    <linearGradient id="clutchGradient" x1="0%" y1="0%" x2="100%" y2="100%">
      <stop offset="0%" style="stop-color:#000000;stop-opacity:1" />
      <stop offset="100%" style="stop-color:#333333;stop-opacity:1" />
    </linearGradient>
  </defs>
  
  <!-- Main clutch body -->
  <rect x="50" y="160" width="200" height="80" rx="5" fill="url(#clutchGradient)" stroke="#666666" stroke-width="1"/>
  
  <!-- Flap -->
  <rect x="50" y="140" width="200" height="30" rx="5" fill="#333333" stroke="#666666" stroke-width="1"/>
  
  <!-- Crystal embellishments -->
  <circle cx="80" cy="155" r="3" fill="#FFD700" opacity="0.8"/>
  <circle cx="100" cy="155" r="3" fill="#C0C0C0" opacity="0.8"/>
  <circle cx="120" cy="155" r="3" fill="#FFD700" opacity="0.8"/>
  <circle cx="140" cy="155" r="3" fill="#C0C0C0" opacity="0.8"/>
  <circle cx="160" cy="155" r="3" fill="#FFD700" opacity="0.8"/>
  <circle cx="180" cy="155" r="3" fill="#C0C0C0" opacity="0.8"/>
  <circle cx="200" cy="155" r="3" fill="#FFD700" opacity="0.8"/>
  <circle cx="220" cy="155" r="3" fill="#C0C0C0" opacity="0.8"/>
  
  <!-- Clasp -->
  <rect x="145" y="152" width="10" height="6" fill="#FFD700" rx="2"/>
  
  <!-- Chain strap (optional) -->
  <path d="M45 180 Q20 160 25 140 Q30 120 50 130" fill="none" stroke="#C0C0C0" stroke-width="2"/>
  <path d="M255 180 Q280 160 275 140 Q270 120 250 130" fill="none" stroke="#C0C0C0" stroke-width="2"/>
  
  <!-- Shadow -->
  <ellipse cx="150" cy="260" rx="100" ry="6" fill="#000000" opacity="0.2"/>
</svg>