<svg width="300" height="300" viewBox="0 0 300 300" xmlns="http://www.w3.org/2000/svg">
  <defs>
    <linearGradient id="bagGradient" x1="0%" y1="0%" x2="100%" y2="100%">
      <stop offset="0%" style="stop-color:#8B4513;stop-opacity:1" />
      <stop offset="100%" style="stop-color:#5D2F0A;stop-opacity:1" />
    </linearGradient>
    <linearGradient id="handleGradient" x1="0%" y1="0%" x2="100%" y2="100%">
      <stop offset="0%" style="stop-color:#654321;stop-opacity:1" />
      <stop offset="100%" style="stop-color:#3E2723;stop-opacity:1" />
    </linearGradient>
  </defs>
  
  <!-- Main bag body -->
  <path d="M60 120 L240 120 L235 260 L65 260 Z" fill="url(#bagGradient)" stroke="#3E2723" stroke-width="2"/>
  
  <!-- Top fold -->
  <ellipse cx="150" cy="120" rx="90" ry="8" fill="#654321"/>
  
  <!-- Handles -->
  <path d="M100 120 Q100 80 120 80 Q140 80 140 120" fill="none" stroke="url(#handleGradient)" stroke-width="8" stroke-linecap="round"/>
  <path d="M160 120 Q160 80 180 80 Q200 80 200 120" fill="none" stroke="url(#handleGradient)" stroke-width="8" stroke-linecap="round"/>
  
  <!-- Decorative stitching -->
  <line x1="70" y1="130" x2="230" y2="130" stroke="#3E2723" stroke-width="1" stroke-dasharray="3,3"/>
  <line x1="70" y1="250" x2="230" y2="250" stroke="#3E2723" stroke-width="1" stroke-dasharray="3,3"/>
  
  <!-- Zipper -->
  <rect x="140" y="115" width="20" height="10" fill="#C0C0C0" rx="2"/>
  <circle cx="155" cy="120" r="2" fill="#808080"/>
  
  <!-- Shadow -->
  <ellipse cx="150" cy="280" rx="80" ry="10" fill="#000000" opacity="0.2"/>
</svg>