<svg width="300" height="300" viewBox="0 0 300 300" xmlns="http://www.w3.org/2000/svg">
  <defs>
    <linearGradient id="redBlock" x1="0%" y1="0%" x2="100%" y2="100%">
      <stop offset="0%" style="stop-color:#FF4444;stop-opacity:1" />
      <stop offset="100%" style="stop-color:#CC0000;stop-opacity:1" />
    </linearGradient>
    <linearGradient id="blueBlock" x1="0%" y1="0%" x2="100%" y2="100%">
      <stop offset="0%" style="stop-color:#4444FF;stop-opacity:1" />
      <stop offset="100%" style="stop-color:#0000CC;stop-opacity:1" />
    </linearGradient>
    <linearGradient id="greenBlock" x1="0%" y1="0%" x2="100%" y2="100%">
      <stop offset="0%" style="stop-color:#44FF44;stop-opacity:1" />
      <stop offset="100%" style="stop-color:#00CC00;stop-opacity:1" />
    </linearGradient>
    <linearGradient id="yellowBlock" x1="0%" y1="0%" x2="100%" y2="100%">
      <stop offset="0%" style="stop-color:#FFFF44;stop-opacity:1" />
      <stop offset="100%" style="stop-color:#CCCC00;stop-opacity:1" />
    </linearGradient>
  </defs>
  
  <!-- Bottom layer blocks -->
  <rect x="60" y="200" width="50" height="50" rx="5" fill="url(#redBlock)" stroke="#990000" stroke-width="2"/>
  <rect x="120" y="200" width="50" height="50" rx="5" fill="url(#blueBlock)" stroke="#000099" stroke-width="2"/>
  <rect x="180" y="200" width="50" height="50" rx="5" fill="url(#greenBlock)" stroke="#009900" stroke-width="2"/>
  
  <!-- Middle layer blocks -->
  <rect x="90" y="150" width="50" height="50" rx="5" fill="url(#yellowBlock)" stroke="#999900" stroke-width="2"/>
  <rect x="150" y="150" width="50" height="50" rx="5" fill="url(#redBlock)" stroke="#990000" stroke-width="2"/>
  
  <!-- Top layer block -->
  <rect x="120" y="100" width="50" height="50" rx="5" fill="url(#blueBlock)" stroke="#000099" stroke-width="2"/>
  
  <!-- Block studs (connecting dots) -->
  <!-- Bottom layer studs -->
  <circle cx="75" cy="215" r="4" fill="#FF6666"/>
  <circle cx="95" cy="215" r="4" fill="#FF6666"/>
  <circle cx="75" cy="235" r="4" fill="#FF6666"/>
  <circle cx="95" cy="235" r="4" fill="#FF6666"/>
  
  <circle cx="135" cy="215" r="4" fill="#6666FF"/>
  <circle cx="155" cy="215" r="4" fill="#6666FF"/>
  <circle cx="135" cy="235" r="4" fill="#6666FF"/>
  <circle cx="155" cy="235" r="4" fill="#6666FF"/>
  
  <circle cx="195" cy="215" r="4" fill="#66FF66"/>
  <circle cx="215" cy="215" r="4" fill="#66FF66"/>
  <circle cx="195" cy="235" r="4" fill="#66FF66"/>
  <circle cx="215" cy="235" r="4" fill="#66FF66"/>
  
  <!-- Middle layer studs -->
  <circle cx="105" cy="165" r="4" fill="#FFFF66"/>
  <circle cx="125" cy="165" r="4" fill="#FFFF66"/>
  <circle cx="105" cy="185" r="4" fill="#FFFF66"/>
  <circle cx="125" cy="185" r="4" fill="#FFFF66"/>
  
  <circle cx="165" cy="165" r="4" fill="#FF6666"/>
  <circle cx="185" cy="165" r="4" fill="#FF6666"/>
  <circle cx="165" cy="185" r="4" fill="#FF6666"/>
  <circle cx="185" cy="185" r="4" fill="#FF6666"/>
  
  <!-- Top layer studs -->
  <circle cx="135" cy="115" r="4" fill="#6666FF"/>
  <circle cx="155" cy="115" r="4" fill="#6666FF"/>
  <circle cx="135" cy="135" r="4" fill="#6666FF"/>
  <circle cx="155" cy="135" r="4" fill="#6666FF"/>
  
  <!-- Scattered loose blocks -->
  <rect x="40" y="120" width="30" height="30" rx="3" fill="url(#greenBlock)" stroke="#009900" stroke-width="1"/>
  <circle cx="50" cy="130" r="2" fill="#66FF66"/>
  <circle cx="65" cy="130" r="2" fill="#66FF66"/>
  <circle cx="50" cy="145" r="2" fill="#66FF66"/>
  <circle cx="65" cy="145" r="2" fill="#66FF66"/>
  
  <rect x="240" y="160" width="30" height="30" rx="3" fill="url(#yellowBlock)" stroke="#999900" stroke-width="1"/>
  <circle cx="250" cy="170" r="2" fill="#FFFF66"/>
  <circle cx="265" cy="170" r="2" fill="#FFFF66"/>
  <circle cx="250" cy="185" r="2" fill="#FFFF66"/>
  <circle cx="265" cy="185" r="2" fill="#FFFF66"/>
  
  <!-- Shadow -->
  <ellipse cx="150" cy="270" rx="120" ry="12" fill="#000000" opacity="0.2"/>
</svg>